<?xml version="1.0" standalone="no"?>
<!DOCTYPE svg PUBLIC "-//W3C//DTD SVG 20010904//EN"
 "http://www.w3.org/TR/2001/REC-SVG-20010904/DTD/svg10.dtd">
<svg version="1.0" xmlns="http://www.w3.org/2000/svg"
 width="500.000000pt" height="500.000000pt" viewBox="0 0 500.000000 500.000000"
 preserveAspectRatio="xMidYMid meet">
<metadata>
Created by potrace 1.16, written by Peter Selinger 2001-2019
</metadata>
<g transform="translate(0.000000,500.000000) scale(0.100000,-0.100000)"
fill="#000000" stroke="none">
<path d="M1060 4132 l0 -62 -125 0 -125 0 0 -819 0 -818 328 -6 c430 -7 728
-37 983 -96 118 -28 251 -77 299 -112 39 -28 43 -29 164 -29 82 0 127 4 132
11 14 23 175 89 285 118 251 65 581 99 1037 108 l312 6 0 819 0 818 -125 0
-125 0 0 60 0 60 -102 0 c-156 0 -487 -19 -638 -35 -332 -37 -577 -101 -725
-190 l-57 -35 -29 21 c-75 53 -255 119 -424 155 -201 43 -484 70 -829 80
l-236 7 0 -61z m650 -72 c333 -31 604 -100 738 -187 l52 -35 0 -659 0 -659
-37 19 c-57 28 -219 78 -329 100 -219 44 -436 67 -730 77 l-194 7 0 572 c0
315 -3 621 -7 680 l-6 108 199 -6 c109 -4 251 -11 314 -17z m2250 -660 l0
-680 -42 0 c-24 0 -131 -5 -238 -10 -471 -25 -761 -79 -1007 -187 -10 -4 -13
129 -13 649 l0 654 28 27 c36 35 156 89 267 121 205 60 539 100 863 104 l142
2 0 -680z"/>
<path d="M1496 3879 c-49 -5 -91 -11 -94 -13 -2 -3 -1 -18 3 -35 6 -28 9 -30
38 -23 18 4 118 7 222 6 214 0 311 -16 508 -81 l109 -36 21 22 c21 21 21 23 4
35 -28 21 -192 73 -302 95 -185 37 -337 46 -509 30z"/>
<path d="M1460 3724 c-69 -13 -69 -12 -61 -41 8 -28 9 -28 72 -23 148 12 353
3 467 -19 96 -18 264 -68 323 -95 12 -5 23 1 38 23 l21 29 -57 22 c-85 32
-217 69 -308 86 -77 15 -439 28 -495 18z"/>
<path d="M1466 3579 c-38 -5 -71 -11 -73 -13 -2 -2 -1 -16 3 -30 l6 -27 102 6
c55 4 106 8 113 10 25 8 256 -15 354 -36 56 -11 147 -37 202 -56 94 -32 100
-33 118 -17 11 9 19 23 19 29 0 22 -221 92 -377 120 -107 19 -372 27 -467 14z"/>
<path d="M1490 3424 c-8 -1 -36 -5 -62 -9 l-47 -6 11 -30 10 -30 72 8 c209 24
462 -5 678 -78 l119 -40 19 23 c11 13 19 26 20 29 0 10 -133 57 -238 85 -132
34 -302 54 -445 53 -67 -1 -129 -3 -137 -5z"/>
<path d="M1496 3279 c-60 -5 -111 -10 -113 -12 -2 -2 0 -18 3 -35 6 -29 9 -31
38 -24 17 4 117 7 221 6 216 0 317 -16 507 -81 105 -35 109 -36 128 -18 29 26
25 33 -27 56 -193 83 -504 127 -757 108z"/>
<path d="M1471 3129 c-47 -5 -86 -11 -89 -13 -2 -3 -1 -18 3 -35 6 -28 9 -30
38 -23 18 4 118 7 222 6 214 0 311 -16 509 -81 l109 -36 19 23 c12 15 15 27 9
33 -16 16 -210 76 -310 97 -181 37 -345 46 -510 29z"/>
<path d="M1465 2978 c-49 -5 -91 -11 -93 -13 -2 -2 0 -16 5 -32 9 -26 13 -28
54 -23 24 3 121 5 214 4 198 0 286 -14 483 -76 129 -41 132 -41 147 -22 8 10
13 24 11 29 -4 17 -164 72 -286 98 -118 26 -306 48 -395 46 -27 -1 -90 -6
-140 -11z"/>
<path d="M3405 3840 c-166 -14 -456 -84 -511 -124 -15 -12 -16 -14 0 -38 l16
-25 113 38 c187 64 296 82 497 83 96 1 194 -2 217 -6 39 -8 42 -7 51 22 6 16
8 32 4 34 -8 5 -106 13 -219 20 -38 2 -113 0 -168 -4z"/>
<path d="M3360 3684 c-165 -21 -481 -108 -480 -132 1 -4 9 -17 20 -30 l19 -24
63 25 c199 80 495 121 697 98 56 -7 104 -11 106 -9 2 2 6 15 10 29 5 20 2 28
-12 34 -20 8 -368 16 -423 9z"/>
<path d="M3365 3538 c-154 -17 -462 -99 -480 -127 -2 -5 6 -17 18 -29 l22 -21
101 34 c203 68 283 80 537 80 l228 0 6 23 c3 13 3 25 1 27 -9 9 -194 25 -273
24 -44 -1 -116 -6 -160 -11z"/>
<path d="M3375 3384 c-172 -24 -327 -63 -442 -109 -48 -19 -49 -22 -24 -51
l18 -22 115 39 c213 71 450 100 642 80 59 -7 109 -11 111 -9 1 2 5 15 9 29 4
20 1 29 -12 34 -19 8 -371 16 -417 9z"/>
<path d="M3425 3240 c-168 -14 -455 -83 -511 -124 -15 -12 -15 -14 0 -38 l16
-25 113 38 c187 64 296 82 497 83 96 1 194 -2 217 -6 39 -8 42 -7 51 22 6 16
8 32 4 34 -8 5 -106 13 -219 20 -38 2 -113 0 -168 -4z"/>
<path d="M3433 3089 c-56 -4 -141 -15 -190 -24 -97 -18 -329 -90 -338 -105
-10 -16 28 -60 45 -53 62 27 226 75 316 93 131 26 351 36 454 22 41 -6 78 -8
82 -4 4 4 9 18 10 32 3 22 -1 25 -47 31 -89 12 -227 16 -332 8z"/>
<path d="M3410 2938 c-52 -5 -146 -20 -209 -34 -107 -24 -277 -78 -293 -92 -4
-4 1 -18 11 -31 l19 -24 108 36 c210 69 292 82 543 82 l224 1 9 23 c5 13 7 25
5 27 -6 6 -212 24 -266 23 -31 -1 -99 -6 -151 -11z"/>
<path d="M760 2259 c0 -52 43 -236 82 -349 161 -470 499 -851 943 -1061 595
-282 1296 -222 1835 156 402 282 694 758 756 1231 l6 51 -218 -4 c-762 -12
-1290 -92 -1474 -223 -24 -17 -44 -20 -138 -20 -107 0 -111 1 -165 34 -207
124 -731 200 -1435 209 l-192 2 0 -26z m2375 -239 c236 -13 473 -33 721 -62
l192 -22 -10 -29 c-21 -59 -110 -222 -171 -311 -88 -130 -275 -314 -410 -404
-265 -177 -514 -258 -823 -269 -249 -9 -425 20 -645 106 -378 148 -705 461
-865 829 l-34 77 138 17 c184 23 562 57 747 67 221 12 941 13 1160 1z"/>
<path d="M2143 1941 l-32 -6 43 -130 c24 -71 57 -165 75 -208 l33 -77 326 2
326 3 37 95 c52 133 104 308 95 317 -9 10 -858 14 -903 4z"/>
<path d="M1835 1929 c-219 -14 -514 -41 -603 -55 l-32 -5 16 -32 c57 -110 200
-317 247 -355 12 -10 51 -10 198 2 101 8 250 18 332 22 81 4 147 11 147 16 0
5 -11 34 -24 66 -25 60 -76 213 -98 297 -16 59 -7 56 -183 44z"/>
<path d="M3163 1908 c-6 -29 -109 -337 -127 -379 -6 -14 11 -17 141 -23 81 -4
233 -13 338 -22 l190 -15 35 42 c115 136 243 345 220 359 -6 4 -44 10 -83 13
-40 4 -144 13 -232 21 -88 8 -207 17 -265 21 -58 3 -129 8 -158 11 l-52 5 -7
-33z"/>
<path d="M2105 1394 c-27 -2 -147 -8 -265 -15 -118 -6 -223 -14 -234 -18 -16
-6 -8 -16 54 -65 147 -115 323 -206 503 -260 81 -25 265 -61 273 -54 2 2 -11
27 -30 54 -48 73 -127 208 -172 292 -30 56 -43 72 -59 70 -11 -1 -42 -3 -70
-4z"/>
<path d="M2320 1394 c0 -21 191 -330 248 -403 l19 -24 67 96 c66 94 196 313
196 329 0 4 -119 8 -265 8 -146 0 -265 -3 -265 -6z"/>
<path d="M2944 1332 c-71 -130 -88 -158 -147 -250 -33 -51 -58 -95 -55 -97 7
-7 177 23 248 44 197 57 371 147 524 269 49 39 65 57 55 62 -8 4 -111 13 -229
19 -118 6 -248 13 -287 15 l-73 4 -36 -66z"/>
</g>
</svg>
